<svg width="16" height="15" viewBox="0 0 16 15" fill="none" xmlns="http://www.w3.org/2000/svg">
<path d="M12.4385 12.2542C12.4385 13.0766 13.0161 13.6542 13.8322 13.6542C14.6546 13.6542 15.2259 13.0766 15.2259 12.2542V2.12165C15.2259 1.29925 14.6546 0.72168 13.8322 0.72168C13.0161 0.72168 12.4385 1.29925 12.4385 2.12165V12.2542ZM5.85927 10.3834C7.7552 10.6094 9.7139 11.1869 11.5282 12.1286C11.5219 12.0721 11.5219 12.0156 11.5219 11.9591V2.41044C11.5219 2.37277 11.5219 2.3351 11.5219 2.29743C9.73901 3.23284 7.59825 3.85435 5.85927 4.04269V10.3834ZM3.56784 4.04269C1.75352 4.04269 0.77417 4.99693 0.77417 6.74847V7.67759C0.77417 9.42285 1.75352 10.3771 3.56784 10.3771H4.93642V4.04269H3.56784ZM6.24222 14.8972C7.08346 14.8972 7.70497 14.2757 7.47269 13.2586L7.05207 11.3816C6.66912 11.2309 5.67721 11.1493 5.03059 11.143H3.46111L4.69786 13.7358C5.0557 14.4766 5.45121 14.8972 6.24222 14.8972Z" fill="white"/>
</svg>
