<svg width="18" height="12" viewBox="0 0 18 12" fill="none" xmlns="http://www.w3.org/2000/svg">
<path d="M2.45848 3.92613H4.10329V3.05978C4.10329 2.45082 4.43602 2.12437 5.05125 2.12437H7.37408C7.98931 2.12437 8.32204 2.45082 8.32204 3.05978V3.92613H9.73457V3.05978C9.73457 2.45082 10.0673 2.12437 10.7076 2.12437H12.9112C13.5578 2.12437 13.8905 2.45082 13.8905 3.05978V3.92613H15.5353V2.12437C15.5353 0.931571 14.895 0.310059 13.7273 0.310059H4.26651C3.09882 0.310059 2.45848 0.931571 2.45848 2.12437V3.92613ZM0.907837 10.6372C0.907837 10.9762 1.12756 11.1897 1.46029 11.1897H1.84952C2.18225 11.1897 2.40198 10.9762 2.40198 10.6372V9.73319C2.47731 9.75202 2.69704 9.76458 2.85399 9.76458H15.1398C15.2968 9.76458 15.5165 9.75202 15.5918 9.73319V10.6372C15.5918 10.9762 15.8116 11.1897 16.1443 11.1897H16.5335C16.8663 11.1897 17.086 10.9762 17.086 10.6372V6.82024C17.086 5.57094 16.3954 4.88665 15.1398 4.88665H2.85399C1.59841 4.88665 0.907837 5.57094 0.907837 6.82024V10.6372Z" fill="white"/>
</svg>
