<svg width="16" height="22" viewBox="0 0 16 22" fill="none" xmlns="http://www.w3.org/2000/svg">
<path d="M3.62305 1.46973H12.3154C12.2539 0.678711 11.7881 0.256836 10.9355 0.256836H4.99414C4.1416 0.256836 3.67578 0.678711 3.62305 1.46973ZM2.11133 4.01855H13.8184C13.6953 3.18359 13.2734 2.70898 12.333 2.70898H3.59668C2.65625 2.70898 2.23438 3.18359 2.11133 4.01855ZM3.05176 21.0693H13.1592C14.8379 21.0693 15.8223 20.0938 15.8223 18.2129V8.27246C15.8223 6.3916 14.8379 5.41602 12.9395 5.41602H3.05176C1.15332 5.41602 0.168945 6.3916 0.168945 8.27246V18.2129C0.168945 20.0938 1.15332 21.0693 3.05176 21.0693ZM4.73047 16.8418V13.2822C4.73047 12.6582 4.98535 12.333 5.49512 12.2803V11.2607C5.49512 9.57324 6.50586 8.44824 8 8.44824C9.49414 8.44824 10.5049 9.57324 10.5049 11.2607V12.2891C11.0146 12.333 11.2695 12.6582 11.2695 13.2822V16.8418C11.2695 17.5361 10.9619 17.8613 10.3203 17.8613H5.67969C5.03809 17.8613 4.73047 17.5361 4.73047 16.8418ZM6.56738 12.2627H9.43262V11.1641C9.43262 10.1621 8.86133 9.49414 8 9.49414C7.13867 9.49414 6.56738 10.1621 6.56738 11.1641V12.2627Z" fill="#D9D9D9"/>
</svg>
