<svg width="16" height="10" viewBox="0 0 16 10" fill="none" xmlns="http://www.w3.org/2000/svg">
<path d="M8.23223 9.45529C8.65913 9.45529 8.88513 9.27951 9.02325 8.8275L9.71381 6.8939H13.2859L13.9765 8.8275C14.1146 9.27951 14.3406 9.45529 14.7675 9.45529C15.2133 9.45529 15.5083 9.18534 15.5083 8.76472C15.5083 8.60777 15.4769 8.47593 15.4204 8.30015L12.6519 0.82945C12.4573 0.283273 12.0931 0.0258789 11.5093 0.0258789C10.9443 0.0258789 10.5802 0.283273 10.3856 0.823172L7.60444 8.33782C7.54794 8.50105 7.52283 8.63916 7.52283 8.77727C7.52283 9.19789 7.79278 9.45529 8.23223 9.45529ZM10.0779 5.71366L11.4842 1.64558H11.5281L12.9344 5.71366H10.0779ZM1.14448 9.45529C1.47721 9.45529 1.68438 9.27951 1.80366 8.87772L2.24939 7.55308H4.69149L5.13095 8.884C5.25023 9.29206 5.4574 9.45529 5.80896 9.45529C6.19191 9.45529 6.45558 9.20417 6.45558 8.84005C6.45558 8.69566 6.42419 8.55127 6.36142 8.38177L4.46549 3.30294C4.27715 2.79443 3.95698 2.55587 3.46102 2.55587C2.9839 2.55587 2.66373 2.79443 2.48167 3.30294L0.579468 8.38177C0.522967 8.53871 0.491577 8.70194 0.491577 8.84005C0.491577 9.21673 0.742693 9.45529 1.14448 9.45529ZM2.55701 6.5549L3.39197 3.93073H3.5238L4.3776 6.5549H2.55701Z" fill="white"/>
</svg>
