<svg width="20" height="20" viewBox="0 0 20 20" fill="none" xmlns="http://www.w3.org/2000/svg">
<path d="M10 0C7.34784 -3.16267e-08 4.8043 1.05357 2.92893 2.92893C1.05357 4.8043 2.3186e-07 7.34783 0 10C-2.3186e-07 12.6522 1.05357 15.1957 2.92893 17.0711C4.80429 18.9464 7.34783 20 10 20L10 16.8C8.19653 16.8 6.46692 16.0836 5.19167 14.8083C3.91643 13.5331 3.2 11.8035 3.2 10C3.2 8.19653 3.91643 6.46692 5.19167 5.19167C6.46692 3.91643 8.19653 3.2 10 3.2V0Z" fill="white"/>
<path d="M10 20C12.6522 20 15.1957 18.9464 17.0711 17.0711C18.9464 15.1957 20 12.6522 20 10C20 7.34784 18.9464 4.8043 17.0711 2.92893C15.1957 1.05357 12.6522 6.63952e-07 10 0V3.2C11.8035 3.2 13.5331 3.91643 14.8083 5.19167C16.0836 6.46692 16.8 8.19653 16.8 10C16.8 11.8035 16.0836 13.5331 14.8083 14.8083C13.5331 16.0836 11.8035 16.8 10 16.8L10 20Z" fill="white"/>
<path d="M12 3L14.5981 4.5L7.59808 16.6244L5 15.1244L12 3Z" fill="white"/>
</svg>
