<svg width="22" height="20" viewBox="0 0 22 20" fill="none" xmlns="http://www.w3.org/2000/svg">
<path d="M19.04 4.82018L13.28 0.790182C11.71 -0.309818 9.29999 -0.249818 7.78999 0.920182L2.77999 4.83018C1.77999 5.61018 0.98999 7.21018 0.98999 8.47018V15.3702C0.98999 17.9202 3.05999 20.0002 5.60999 20.0002H16.39C18.94 20.0002 21.01 17.9302 21.01 15.3802V8.60018C21.01 7.25018 20.14 5.59018 19.04 4.82018ZM11.75 16.0002C11.75 16.4102 11.41 16.7502 11 16.7502C10.59 16.7502 10.25 16.4102 10.25 16.0002V13.0002C10.25 12.5902 10.59 12.2502 11 12.2502C11.41 12.2502 11.75 12.5902 11.75 13.0002V16.0002Z" fill="#D9D9D9"/>
</svg>
