<svg width="16" height="12" viewBox="0 0 16 12" fill="none" xmlns="http://www.w3.org/2000/svg">
<path fill-rule="evenodd" clip-rule="evenodd" d="M14.2465 11.4507H1.74716C0.604579 11.4507 0.00817871 10.8731 0.00817871 9.7117V2.46701C0.00817871 1.30559 0.604579 0.728027 1.74716 0.728027H14.2465C15.389 0.728027 15.9854 1.30559 15.9854 2.46701V9.7117C15.9854 10.8731 15.389 11.4507 14.2465 11.4507ZM1.82877 1.94594C1.41443 1.94594 1.22609 2.11544 1.22609 2.54234V9.26597L3.32919 7.3826C3.5803 7.1566 3.84398 7.03732 4.13276 7.03732C4.4341 7.03732 4.72288 7.1566 4.98028 7.39516L6.40536 8.67585L9.50037 5.9073C9.78915 5.6499 10.103 5.53062 10.4421 5.53062C10.7811 5.53062 11.1075 5.65618 11.3837 5.91357L14.7675 9.08391V2.54234C14.7675 2.11544 14.5792 1.94594 14.1648 1.94594H1.82877ZM6.88248 4.55127C6.88248 5.38623 6.20447 6.06424 5.38834 6.06424C4.55338 6.06424 3.86909 5.38623 3.86909 4.55127C3.86909 3.72886 4.55338 3.04457 5.38834 3.04457C6.20447 3.04457 6.88248 3.72886 6.88248 4.55127Z" fill="white"/>
</svg>
