<svg width="14" height="20" viewBox="0 0 14 20" fill="none" xmlns="http://www.w3.org/2000/svg">
<path fill-rule="evenodd" clip-rule="evenodd" d="M1.46164 0.0598249C0.795596 0.258747 0.237558 0.872147 0.0592593 1.60137C-0.0197531 1.92455 -0.0197531 18.0692 0.0592593 18.3923C0.239854 19.1308 0.798826 19.7392 1.47743 19.9357C1.77346 20.0214 12.2325 20.0214 12.5285 19.9357C13.2071 19.7392 13.7661 19.1308 13.9467 18.3923C13.9916 18.2086 13.9992 17.2967 13.9996 12.0196L14 5.86124L11.6946 5.84964L9.38915 5.83801L9.17385 5.72866C8.89362 5.58637 8.64847 5.32086 8.52166 5.02225L8.42033 4.78365L8.40957 2.39182L8.39884 0L5.01871 0.00347547C2.29568 0.00628708 1.6042 0.0172602 1.46164 0.0598249ZM9.47885 2.4108C9.47885 4.05544 9.48944 4.60382 9.52191 4.63916C9.57455 4.69645 13.7488 4.70801 13.7488 4.65088C13.7488 4.53576 13.282 4.02287 11.6236 2.31611C10.6028 1.26546 9.70254 0.366135 9.62317 0.317595L9.47885 0.229303V2.4108ZM11.1157 7.91641C11.2825 8.0459 11.3584 8.19574 11.3584 8.39579C11.3584 8.59585 11.2825 8.74568 11.1157 8.87517L11.0038 8.96202L7.02093 8.97358C4.83033 8.97995 2.96822 8.97428 2.88293 8.96101C2.76854 8.9432 2.69232 8.89821 2.5925 8.78958C2.36429 8.54122 2.36418 8.25049 2.59221 8.00232C2.66649 7.92149 2.76488 7.84741 2.81088 7.83769C2.85684 7.82796 4.71909 7.82219 6.94916 7.8248L11.0038 7.82957L11.1157 7.91641ZM11.1157 11.0404C11.2825 11.1699 11.3584 11.3198 11.3584 11.5198C11.3584 11.7199 11.2825 11.8697 11.1157 11.9992L11.0038 12.086L7.02093 12.0976C4.83033 12.104 2.96822 12.0983 2.88293 12.085C2.76854 12.0672 2.69232 12.0222 2.5925 11.9136C2.36429 11.6652 2.36418 11.3745 2.59221 11.1263C2.66649 11.0455 2.76488 10.9714 2.81088 10.9617C2.85684 10.952 4.71909 10.9462 6.94916 10.9488L11.0038 10.9536L11.1157 11.0404ZM5.81149 14.1479C6.15664 14.3529 6.15664 14.9347 5.81149 15.1398C5.70488 15.2032 5.563 15.2113 4.36565 15.2222C3.63545 15.2289 2.96822 15.2233 2.88293 15.2096C2.76904 15.1915 2.69189 15.1458 2.5925 15.0376C2.36429 14.7892 2.36418 14.4985 2.59221 14.2504C2.66649 14.1695 2.76488 14.0952 2.81088 14.0852C2.85684 14.0752 3.52422 14.0694 4.29389 14.0723C5.56774 14.0771 5.70391 14.0839 5.81149 14.1479Z" fill="white"/>
</svg>
