<svg width="20" height="20" viewBox="0 0 20 20" fill="none" xmlns="http://www.w3.org/2000/svg">
<path fill-rule="evenodd" clip-rule="evenodd" d="M7.59034 0.110094C7.43474 0.189323 7.34138 0.271796 7.25741 0.404158C7.15035 0.572932 7.12542 0.690058 6.95615 1.81959L6.77161 3.05101L6.35075 3.27624C6.11927 3.40012 5.82667 3.5689 5.70049 3.65129C5.56653 3.7388 5.44147 3.79311 5.39987 3.78182C5.36071 3.77119 4.82797 3.56683 4.21603 3.32769C3.2886 2.96526 3.06811 2.8929 2.89119 2.8929C2.63037 2.8929 2.30201 3.04089 2.1671 3.21924C2.11595 3.28687 1.62153 4.10694 1.06832 5.04164C0.411364 6.15168 0.0477761 6.80545 0.0199188 6.92667C-0.0323889 7.15432 0.0201994 7.42303 0.155638 7.62013C0.207304 7.69534 0.688895 8.09012 1.22588 8.49748L2.20221 9.23805V10.0033V10.7685L1.22885 11.5091C0.693505 11.9164 0.211152 12.3119 0.157001 12.388C0.0324245 12.563 -0.0222079 12.8412 0.0223237 13.0735C0.0463331 13.1988 0.36046 13.7663 1.06567 14.9585C1.62061 15.8968 2.11635 16.7197 2.16738 16.7873C2.30181 16.9655 2.63025 17.1136 2.89119 17.1136C3.06811 17.1136 3.2886 17.0413 4.21603 16.6789C4.82797 16.4397 5.36079 16.2353 5.40007 16.2247C5.44272 16.2131 5.58008 16.2756 5.74077 16.3796C5.88888 16.4754 6.18284 16.6446 6.39407 16.7554L6.77811 16.957L6.94938 18.139C7.04758 18.8169 7.15027 19.3878 7.19015 19.4777C7.28238 19.6856 7.47342 19.8663 7.68313 19.944C7.83432 20 8.10636 20.0059 10.0615 19.9962L12.2693 19.9851L12.4659 19.8667C12.8056 19.6619 12.8536 19.5207 13.053 18.1378L13.2236 16.9546L13.5934 16.762C13.7968 16.656 14.0896 16.4875 14.2441 16.3873C14.4127 16.2781 14.5535 16.2131 14.5964 16.2247C14.6357 16.2353 15.1685 16.4397 15.7805 16.6789C16.7147 17.0439 16.9276 17.1136 17.1083 17.1136C17.3728 17.1136 17.5695 17.0372 17.745 16.866C17.9165 16.6989 19.9173 13.3209 19.9781 13.0958C20.0351 12.8847 19.9776 12.5845 19.8421 12.3864C19.7906 12.3112 19.3089 11.9161 18.7714 11.5084L17.7943 10.7671V10.0035V9.23985L18.7706 8.49834C19.3075 8.09055 19.7892 7.69534 19.8408 7.62013C19.9761 7.42334 20.0289 7.15444 19.9769 6.92667C19.9345 6.7413 17.9883 3.39817 17.7868 3.16478C17.7348 3.10454 17.61 3.01648 17.5095 2.96905C17.1782 2.81274 16.9584 2.85981 15.6912 3.35832C15.0856 3.59656 14.5743 3.79147 14.555 3.79147C14.5357 3.79147 14.3669 3.69431 14.18 3.57554C13.993 3.45677 13.7016 3.29175 13.5323 3.20877L13.2245 3.05793L13.0534 1.87175C12.8535 0.485576 12.8057 0.344775 12.4659 0.139902L12.2693 0.0214092L10.0379 0.0107046L7.80658 0L7.59034 0.110094ZM10.6622 6.75661C12.0176 7.02927 13.0495 8.03507 13.3292 9.35612C13.7053 11.1321 12.5092 12.8784 10.6622 13.2499C9.79063 13.4253 8.8739 13.2497 8.1242 12.7639C7.76646 12.5321 7.28964 12.0444 7.07259 11.6884C6.70115 11.0789 6.53484 10.3133 6.62419 9.62381C6.72079 8.87827 7.01728 8.26866 7.54512 7.73015C8.37499 6.8835 9.51814 6.52646 10.6622 6.75661Z" fill="white"/>
</svg>
