<svg width="14" height="20" viewBox="0 0 14 20" fill="none" xmlns="http://www.w3.org/2000/svg">
<path fill-rule="evenodd" clip-rule="evenodd" d="M1.46164 0.0598249C0.795596 0.258747 0.237558 0.872147 0.0592593 1.60137C-0.0197531 1.92455 -0.0197531 18.0692 0.0592593 18.3923C0.239854 19.1309 0.798826 19.7392 1.47743 19.9357C1.77346 20.0214 12.2325 20.0214 12.5285 19.9357C13.2071 19.7392 13.7661 19.1309 13.9467 18.3923C13.9916 18.2086 13.9992 17.2967 13.9996 12.0196L14 5.86124L11.6946 5.84964L9.38915 5.83801L9.17385 5.72866C8.89362 5.58637 8.64847 5.32086 8.52166 5.02225L8.42033 4.78365L8.40957 2.39182L8.39884 0L5.01871 0.00347547C2.29568 0.00628708 1.6042 0.0172602 1.46164 0.0598249ZM9.47885 2.4108C9.47885 4.05544 9.48944 4.60382 9.52191 4.63916C9.57455 4.69645 13.7488 4.70801 13.7488 4.65088C13.7488 4.53576 13.282 4.02287 11.6236 2.31611C10.6028 1.26546 9.70254 0.366135 9.62317 0.317595L9.47885 0.229303V2.4108ZM6.25098 6.13574H7.48145L7.39941 12.7256H6.33301L6.25098 6.13574ZM6.3125 15.8428C6.46289 15.9932 6.64746 16.0684 6.86621 16.0684C7.08952 16.0684 7.27409 15.9932 7.41992 15.8428C7.57031 15.6924 7.64551 15.5078 7.64551 15.2891C7.64551 15.0658 7.57031 14.8812 7.41992 14.7354C7.27409 14.585 7.08952 14.5098 6.86621 14.5098C6.64746 14.5098 6.46289 14.585 6.3125 14.7354C6.16211 14.8812 6.08691 15.0658 6.08691 15.2891C6.08691 15.5078 6.16211 15.6924 6.3125 15.8428Z" fill="white"/>
</svg>
